#!OML:ASF I:\salsa\salsa 7_09\Patient 1\Session 1\dancerfemale.ASF
:FULLY-SPECIFIED
:DEGREES
2093
root 10.1303 15.867 -5.41553 -531.991 691.069 174.246
lowerback -4.94612 3.67928 0.251622
upperback -10.9491 3.68517 -3.14991
thorax -8.53927 1.20005 -3.49513
lowerneck 4.81319 13.083 5.45789
upperneck 17.6233 14.5257 16.1669
head 3.71125 7.72177 4.24963
rclavicle -2.29596e-014 -8.54774e-015
rhumerus 68.3207 10.5711 -67.4822
rradius 83.6334
rwrist -14.093
rhand -23.0287 400.721
rfingers 7.12502
rthumb 3.41538 370.769
lclavicle -2.29596e-014 -8.54774e-015
lhumerus -38.3371 1.85387 93.9192
lradius 112.615
lwrist 9.95423
lhand -37.2874 78.7149
lfingers 7.12502
lthumb -10.3519 611.56
rfemur -22.2926 14.1448 17.9067
rtibia 42.5059
rfoot -37.48 2.65546
rtoes -21.1001
lfemur -19.7346 -5.41394 -9.6258
ltibia 45.3271
lfoot -8.93519 6.60003
ltoes -52.4049
2094
root 9.97414 15.8686 -5.30131 -529.849 696.912 171.655
lowerback -4.96897 3.967 -1.66896
upperback -11.5821 3.74452 -4.0012
thorax -9.3324 1.22749 -3.35869
lowerneck 3.5545 14.2875 5.40153
upperneck 18.7205 15.7947 16.8822
head 4.12122 8.46792 4.62042
rclavicle -1.66979e-014 -4.09496e-014
rhumerus 69.5917 9.19469 -67.0235
rradius 84.5505
rwrist -14.7348
rhand -21.4711 404.23
rfingers 7.12502
rthumb 4.91945 374.307
lclavicle -1.66979e-014 -4.09496e-014
lhumerus -39.3259 2.63452 92.7138
lradius 115.25
lwrist 11.3339
lhand -38.3435 80.0212
lfingers 7.12502
lthumb -11.3706 610.307
rfemur -25.3762 12.1303 15.502
rtibia 45.4102
rfoot -37.6962 -3.94988
rtoes -26.3404
lfemur -18.4357 0.229519 -14.0575
ltibia 43.902
lfoot -9.73913 8.18249
ltoes -52.2979
2095
root 9.82652 15.8703 -5.19523 -528.062 702.457 169.829
lowerback -5.19214 4.24048 -3.14391
upperback -12.3236 3.71824 -4.72295
thorax -10.1427 1.16331 -3.33274
lowerneck 2.65034 15.273 5.19454
upperneck 19.1185 16.9564 17.408
head 4.25483 9.10428 4.89666
rclavicle -8.43841e-014 4.37326e-015
rhumerus 70.6933 7.69871 -66.6752
rradius 85.6961
rwrist -16.3218
rhand -20.8723 408.16
rfingers 7.12502
rthumb 5.4976 378.251
lclavicle -8.43841e-014 4.37326e-015
lhumerus -39.7037 3.61284 91.3158
lradius 117.562
lwrist 13.1448
lhand -39.9664 81.1293
lfingers 7.12502
lthumb -12.9353 609.292
rfemur -28.4738 9.12318 14.1069
rtibia 47.4831
rfoot -37.226 -10.3628
rtoes -27.6491
lfemur -17.9202 5.71118 -17.7904
ltibia 42.5079
lfoot -10.4142 8.99385
ltoes -51.7402
2096
root 9.68851 15.8662 -5.09869 -526.743 707.458 169.278
lowerback -5.46729 4.51462 -3.48138
upperback -13.0819 3.70975 -5.20593
thorax -10.8776 1.01594 -3.68134
lowerneck 1.87409 15.7984 5.65036
upperneck 18.9852 17.7002 16.9345
head 4.39494 9.50869 4.77217
rclavicle 2.4699e-014 -2.21645e-014
rhumerus 71.6126 5.93949 -66.6418
rradius 86.947
rwrist -18.126
rhand -20.0553 412.856
rfingers 7.12502
rthumb 6.2864 382.969
lclavicle 2.4699e-014 -2.21645e-014
lhumerus -39.3762 4.50726 89.674
lradius 119.679
lwrist 15.1786
lhand -40.8153 83.1973
lfingers 7.12502
lthumb -13.7536 607.277
rfemur -31.1835 5.49205 14.6774
rtibia 48.6707
rfoot -36.8763 -15.6032
rtoes -25.9829
lfemur -17.9359 9.15252 -20.294
ltibia 41.3871
lfoot -11.2077 10.8872
ltoes -51.5964
2097
root 9.56113 15.8731 -5.02439 -525.938 712.068 169.244
lowerback -5.51087 4.79418 -3.30945
upperback -13.8121 3.72249 -5.51013
thorax -11.694 0.837232 -4.13509
lowerneck 1.89121 16.1313 5.6141
upperneck 18.0682 18.3744 16.6012
head 4.09848 9.78596 4.62272
rclavicle -4.42296e-015 -2.08724e-014
rhumerus 72.1437 4.257 -66.909
rradius 88.3269
rwrist -19.7739
rhand -19.5481 418.238
rfingers 7.12502
rthumb 6.77602 388.367
lclavicle -4.42296e-015 -2.08724e-014
lhumerus -39.0402 5.17774 87.9955
lradius 121.758
lwrist 16.8033
lhand -41.1738 82.4709
lfingers 7.12502
lthumb -14.0991 608.027
rfemur -33.0097 1.10866 16.3316
rtibia 48.8162
rfoot -37.6744 -18.538
rtoes -22.5251
lfemur -17.7899 10.1874 -22.2049
ltibia 40.4449
lfoot -11.8512 14.2305
ltoes -51.8902
